<mxfile host="app.diagrams.net" modified="2023-08-01T10:06:51.590Z" agent="Mozilla/5.0 (Windows NT 10.0; Win64; x64) AppleWebKit/537.36 (KHTML, like Gecko) Chrome/115.0.0.0 Safari/537.36" etag="p1R-R2Opl-h08Tbdn3qN" version="21.6.6" type="github">
  <diagram name="第 1 页" id="-4j3Phtm4IF5n5OciEha">
    <mxGraphModel dx="1647" dy="1021" grid="1" gridSize="10" guides="1" tooltips="1" connect="1" arrows="1" fold="1" page="1" pageScale="1" pageWidth="1169" pageHeight="827" math="0" shadow="0">
      <root>
        <mxCell id="0" />
        <mxCell id="1" parent="0" />
        <mxCell id="QB-2PdSuehAVEY3pTIxT-7" value="redis" style="shape=cylinder3;whiteSpace=wrap;html=1;boundedLbl=1;backgroundOutline=1;size=15;" vertex="1" parent="1">
          <mxGeometry x="710" y="80" width="60" height="80" as="geometry" />
        </mxCell>
        <mxCell id="QB-2PdSuehAVEY3pTIxT-11" style="edgeStyle=orthogonalEdgeStyle;rounded=0;orthogonalLoop=1;jettySize=auto;html=1;entryX=0.5;entryY=1;entryDx=0;entryDy=0;" edge="1" parent="1" source="QB-2PdSuehAVEY3pTIxT-10" target="QB-2PdSuehAVEY3pTIxT-8">
          <mxGeometry relative="1" as="geometry" />
        </mxCell>
        <mxCell id="QB-2PdSuehAVEY3pTIxT-19" value="" style="group" vertex="1" connectable="0" parent="1">
          <mxGeometry x="490" y="80" width="140" height="60" as="geometry" />
        </mxCell>
        <mxCell id="QB-2PdSuehAVEY3pTIxT-6" value="调度" style="rounded=1;whiteSpace=wrap;html=1;" vertex="1" parent="QB-2PdSuehAVEY3pTIxT-19">
          <mxGeometry width="120" height="40" as="geometry" />
        </mxCell>
        <mxCell id="QB-2PdSuehAVEY3pTIxT-17" value="调度" style="rounded=1;whiteSpace=wrap;html=1;" vertex="1" parent="QB-2PdSuehAVEY3pTIxT-19">
          <mxGeometry x="10" y="10" width="120" height="40" as="geometry" />
        </mxCell>
        <mxCell id="QB-2PdSuehAVEY3pTIxT-18" value="调度" style="rounded=1;whiteSpace=wrap;html=1;" vertex="1" parent="QB-2PdSuehAVEY3pTIxT-19">
          <mxGeometry x="20" y="20" width="120" height="40" as="geometry" />
        </mxCell>
        <mxCell id="QB-2PdSuehAVEY3pTIxT-24" style="edgeStyle=orthogonalEdgeStyle;rounded=0;orthogonalLoop=1;jettySize=auto;html=1;" edge="1" parent="1" source="QB-2PdSuehAVEY3pTIxT-23" target="QB-2PdSuehAVEY3pTIxT-13">
          <mxGeometry relative="1" as="geometry" />
        </mxCell>
        <mxCell id="QB-2PdSuehAVEY3pTIxT-31" value="" style="group" vertex="1" connectable="0" parent="1">
          <mxGeometry x="120" y="200" width="400" height="80" as="geometry" />
        </mxCell>
        <mxCell id="QB-2PdSuehAVEY3pTIxT-8" value="" style="rounded=1;whiteSpace=wrap;html=1;" vertex="1" parent="QB-2PdSuehAVEY3pTIxT-31">
          <mxGeometry width="400" height="80" as="geometry" />
        </mxCell>
        <mxCell id="QB-2PdSuehAVEY3pTIxT-2" value="Audio" style="rounded=1;whiteSpace=wrap;html=1;" vertex="1" parent="QB-2PdSuehAVEY3pTIxT-31">
          <mxGeometry x="160" y="20" width="80" height="40" as="geometry" />
        </mxCell>
        <mxCell id="QB-2PdSuehAVEY3pTIxT-3" value="Video" style="rounded=1;whiteSpace=wrap;html=1;" vertex="1" parent="QB-2PdSuehAVEY3pTIxT-31">
          <mxGeometry x="280" y="20" width="80" height="40" as="geometry" />
        </mxCell>
        <mxCell id="QB-2PdSuehAVEY3pTIxT-4" value="GW" style="rounded=1;whiteSpace=wrap;html=1;" vertex="1" parent="QB-2PdSuehAVEY3pTIxT-31">
          <mxGeometry x="40" y="20" width="80" height="40" as="geometry" />
        </mxCell>
        <mxCell id="QB-2PdSuehAVEY3pTIxT-32" value="" style="group" vertex="1" connectable="0" parent="1">
          <mxGeometry x="600" y="200" width="400" height="80" as="geometry" />
        </mxCell>
        <mxCell id="QB-2PdSuehAVEY3pTIxT-13" value="" style="rounded=1;whiteSpace=wrap;html=1;" vertex="1" parent="QB-2PdSuehAVEY3pTIxT-32">
          <mxGeometry width="400" height="80" as="geometry" />
        </mxCell>
        <mxCell id="QB-2PdSuehAVEY3pTIxT-14" value="Audio" style="rounded=1;whiteSpace=wrap;html=1;" vertex="1" parent="QB-2PdSuehAVEY3pTIxT-32">
          <mxGeometry x="160" y="20" width="80" height="40" as="geometry" />
        </mxCell>
        <mxCell id="QB-2PdSuehAVEY3pTIxT-15" value="Video" style="rounded=1;whiteSpace=wrap;html=1;" vertex="1" parent="QB-2PdSuehAVEY3pTIxT-32">
          <mxGeometry x="280" y="20" width="80" height="40" as="geometry" />
        </mxCell>
        <mxCell id="QB-2PdSuehAVEY3pTIxT-16" value="GW" style="rounded=1;whiteSpace=wrap;html=1;" vertex="1" parent="QB-2PdSuehAVEY3pTIxT-32">
          <mxGeometry x="40" y="20" width="80" height="40" as="geometry" />
        </mxCell>
        <mxCell id="QB-2PdSuehAVEY3pTIxT-33" value="" style="group" vertex="1" connectable="0" parent="1">
          <mxGeometry x="760" y="400" width="120.5" height="60" as="geometry" />
        </mxCell>
        <mxCell id="QB-2PdSuehAVEY3pTIxT-22" value="Actor" style="shape=umlActor;verticalLabelPosition=bottom;verticalAlign=top;html=1;outlineConnect=0;" vertex="1" parent="QB-2PdSuehAVEY3pTIxT-33">
          <mxGeometry x="90.5" width="30" height="60" as="geometry" />
        </mxCell>
        <mxCell id="QB-2PdSuehAVEY3pTIxT-23" value="Client" style="rounded=1;whiteSpace=wrap;html=1;" vertex="1" parent="QB-2PdSuehAVEY3pTIxT-33">
          <mxGeometry width="81" height="40" as="geometry" />
        </mxCell>
        <mxCell id="QB-2PdSuehAVEY3pTIxT-34" value="" style="group" vertex="1" connectable="0" parent="1">
          <mxGeometry x="280" y="400" width="121" height="60" as="geometry" />
        </mxCell>
        <mxCell id="QB-2PdSuehAVEY3pTIxT-9" value="Actor" style="shape=umlActor;verticalLabelPosition=bottom;verticalAlign=top;html=1;outlineConnect=0;" vertex="1" parent="QB-2PdSuehAVEY3pTIxT-34">
          <mxGeometry x="91" width="30" height="60" as="geometry" />
        </mxCell>
        <mxCell id="QB-2PdSuehAVEY3pTIxT-10" value="Client" style="rounded=1;whiteSpace=wrap;html=1;" vertex="1" parent="QB-2PdSuehAVEY3pTIxT-34">
          <mxGeometry width="81" height="40" as="geometry" />
        </mxCell>
        <mxCell id="QB-2PdSuehAVEY3pTIxT-35" style="edgeStyle=orthogonalEdgeStyle;rounded=0;orthogonalLoop=1;jettySize=auto;html=1;startArrow=classic;startFill=1;" edge="1" parent="1" source="QB-2PdSuehAVEY3pTIxT-8" target="QB-2PdSuehAVEY3pTIxT-13">
          <mxGeometry relative="1" as="geometry" />
        </mxCell>
        <mxCell id="QB-2PdSuehAVEY3pTIxT-36" style="edgeStyle=orthogonalEdgeStyle;rounded=0;orthogonalLoop=1;jettySize=auto;html=1;exitX=0.75;exitY=0;exitDx=0;exitDy=0;entryX=0;entryY=0.25;entryDx=0;entryDy=0;" edge="1" parent="1" source="QB-2PdSuehAVEY3pTIxT-8" target="QB-2PdSuehAVEY3pTIxT-18">
          <mxGeometry relative="1" as="geometry" />
        </mxCell>
        <mxCell id="QB-2PdSuehAVEY3pTIxT-37" style="edgeStyle=orthogonalEdgeStyle;rounded=0;orthogonalLoop=1;jettySize=auto;html=1;exitX=0.25;exitY=0;exitDx=0;exitDy=0;entryX=1;entryY=0.25;entryDx=0;entryDy=0;" edge="1" parent="1" source="QB-2PdSuehAVEY3pTIxT-13" target="QB-2PdSuehAVEY3pTIxT-18">
          <mxGeometry relative="1" as="geometry" />
        </mxCell>
      </root>
    </mxGraphModel>
  </diagram>
</mxfile>
